<?xml version="1.0" encoding="UTF-8" standalone="no"?>
<!-- Generator: Adobe Illustrator 16.0.0, SVG Export Plug-In . SVG Version: 6.00 Build 0)  -->

<svg
   xmlns:dc="http://purl.org/dc/elements/1.1/"
   xmlns:cc="http://creativecommons.org/ns#"
   xmlns:rdf="http://www.w3.org/1999/02/22-rdf-syntax-ns#"
   xmlns:svg="http://www.w3.org/2000/svg"
   xmlns="http://www.w3.org/2000/svg"
   xmlns:xlink="http://www.w3.org/1999/xlink"
   xmlns:sodipodi="http://sodipodi.sourceforge.net/DTD/sodipodi-0.dtd"
   xmlns:inkscape="http://www.inkscape.org/namespaces/inkscape"
   version="1.1"
   id="图层_1"
   x="0px"
   y="0px"
   width="700"
   height="256"
   viewBox="0 0 700 256"
   enable-background="new 0 0 612 792"
   xml:space="preserve"
   inkscape:version="0.91 r13725"
   sodipodi:docname="logo-full.svg"
   inkscape:export-filename="E:\codes\2017\26.slim\bak\flowRoot3754.png"
   inkscape:export-xdpi="89.972343"
   inkscape:export-ydpi="89.972343"><metadata
     id="metadata103"><rdf:RDF><cc:Work
         rdf:about=""><dc:format>image/svg+xml</dc:format><dc:type
           rdf:resource="http://purl.org/dc/dcmitype/StillImage" /><dc:title /></cc:Work></rdf:RDF></metadata><defs
     id="defs101" /><sodipodi:namedview
     pagecolor="#ffffff"
     bordercolor="#666666"
     borderopacity="1"
     objecttolerance="10"
     gridtolerance="10"
     guidetolerance="10"
     inkscape:pageopacity="0"
     inkscape:pageshadow="2"
     inkscape:window-width="1217"
     inkscape:window-height="697"
     id="namedview99"
     showgrid="false"
     inkscape:zoom="0.59595959"
     inkscape:cx="467.62214"
     inkscape:cy="96.650345"
     inkscape:window-x="-8"
     inkscape:window-y="-8"
     inkscape:window-maximized="1"
     inkscape:current-layer="图层_1"
     showguides="false" /><image
     sodipodi:absref="E:\codes\2017\26.slim\artworks\5E20D515.jpg"
     xlink:href="5E20D515.jpg"
     display="none"
     overflow="visible"
     enable-background="new    "
     width="318.2543"
     height="309.29779"
     id="image3"
     style="display:none;overflow:visible;opacity:0.28999999"
     x="151.59911"
     y="-304.8042" /><g
     id="图层_1_1_"
     display="none"
     style="display:none"
     transform="translate(0,-536)"><image
       sodipodi:absref="E:\codes\2017\26.slim\artworks\F1634204.jpg"
       xlink:href="F1634204.jpg"
       display="inline"
       overflow="visible"
       enable-background="new    "
       width="377"
       height="364"
       transform="matrix(0.596,0,0,0.596,177.2153,270.6064)"
       id="image6"
       style="display:inline;overflow:visible" /></g><g
     id="图层_2"
     display="none"
     style="display:none"
     transform="translate(0,-536)"><ellipse
       display="inline"
       stroke-miterlimit="10"
       cx="295.54099"
       cy="316.33301"
       rx="45.242001"
       ry="11.774"
       id="ellipse9"
       style="display:inline;fill:none;stroke:#000000;stroke-width:4;stroke-miterlimit:10" /><ellipse
       display="inline"
       stroke-miterlimit="10"
       cx="295.54099"
       cy="419.36899"
       rx="45.242001"
       ry="11.773"
       id="ellipse11"
       style="display:inline;fill:none;stroke:#000000;stroke-width:4;stroke-miterlimit:10" /><ellipse
       display="inline"
       stroke-miterlimit="10"
       cx="295.54099"
       cy="436.58099"
       rx="45.242001"
       ry="11.774"
       id="ellipse13"
       style="display:inline;fill:none;stroke:#000000;stroke-width:4;stroke-miterlimit:10" /><ellipse
       display="inline"
       stroke-miterlimit="10"
       cx="295.54099"
       cy="367.85001"
       rx="45.242001"
       ry="11.774"
       id="ellipse15"
       style="display:inline;fill:none;stroke:#000000;stroke-width:4;stroke-miterlimit:10" /><ellipse
       display="inline"
       stroke-miterlimit="10"
       cx="295.54099"
       cy="385.00299"
       rx="45.242001"
       ry="11.774"
       id="ellipse17"
       style="display:inline;fill:none;stroke:#000000;stroke-width:4;stroke-miterlimit:10" /><ellipse
       display="inline"
       stroke-miterlimit="10"
       cx="295.54099"
       cy="402.216"
       rx="45.242001"
       ry="11.774"
       id="ellipse19"
       style="display:inline;fill:none;stroke:#000000;stroke-width:4;stroke-miterlimit:10" /><ellipse
       display="inline"
       stroke-miterlimit="10"
       cx="295.54099"
       cy="350.638"
       rx="45.242001"
       ry="11.774"
       id="ellipse21"
       style="display:inline;fill:none;stroke:#000000;stroke-width:4;stroke-miterlimit:10" /><ellipse
       display="inline"
       stroke-miterlimit="10"
       cx="295.54099"
       cy="333.48499"
       rx="45.242001"
       ry="11.774"
       id="ellipse23"
       style="display:inline;fill:none;stroke:#000000;stroke-width:4;stroke-miterlimit:10" /></g><g
     id="图层_3"
     display="none"
     style="display:none"
     transform="translate(0,-536)"><path
       display="inline"
       d="m 210.674,444.828 0,0 c -1.076,0 -1.972,-0.896 -1.972,-1.972 l 0,-118.097 c 0,-1.076 0.896,-1.972 1.972,-1.972 l 0,0 c 1.076,0 1.972,0.896 1.972,1.972 l 0,118.038 c 0.06,1.135 -0.836,2.031 -1.972,2.031 z"
       id="path26"
       inkscape:connector-curvature="0"
       style="display:inline" /><path
       display="inline"
       d="m 312.693,462.459 0,0 c -1.075,0 -1.973,-0.896 -1.973,-1.972 l 0,-117.678 c 0,-1.076 0.896,-1.972 1.973,-1.972 l 0,0 c 1.075,0 1.973,0.896 1.973,1.972 l 0,117.619 c 0,1.135 -0.896,2.031 -1.973,2.031 z"
       id="path28"
       inkscape:connector-curvature="0"
       style="display:inline" /><path
       display="inline"
       d="m 379.094,433.652 0,0 c -1.076,0 -1.973,-0.896 -1.973,-1.974 l 0,-116.122 c 0,-1.076 0.896,-1.973 1.973,-1.973 l 0,0 c 1.075,0 1.973,0.896 1.973,1.973 l 0,116.124 c -0.002,1.076 -0.898,1.972 -1.973,1.972 z"
       id="path30"
       inkscape:connector-curvature="0"
       style="display:inline" /><path
       display="inline"
       d="m 314.068,342.569 0,0 c -0.181,1.016 -0.956,1.733 1.313,1.435 l -99.987,-17.93 c -3.825,0.06 -4.244,-0.896 -4.064,-1.913 l 0,0 c 0.18,-1.016 0.957,-1.733 1.733,-1.614 l 99.928,17.87 c 0.779,0.18 1.257,1.077 1.077,2.152 z"
       id="path32"
       inkscape:connector-curvature="0"
       style="display:inline" /><path
       display="inline"
       d="m 379.512,315.854 0,0 c -0.18,1.016 -0.956,1.733 1.375,1.434 L 278.149,298.94 c -3.885,0 -4.363,-0.956 -4.184,-1.972 l 0,0 c 0.179,-1.016 0.956,-1.733 1.733,-1.614 l 102.736,18.348 c 0.779,0.18 1.257,1.136 1.078,2.152 z"
       id="path34"
       inkscape:connector-curvature="0"
       style="display:inline" /><path
       display="inline"
       d="m 276.655,296.55 0,0 c 0.418,0.957 0.358,1.913 1.434,0.658 l -65.563,28.149 c -2.151,1.673 -2.869,1.076 -3.287,0.12 l 0,0 c -0.418,-0.956 -0.358,-1.913 0.18,-2.151 l 65.563,-28.15 c 0.478,-0.18 1.255,0.418 1.673,1.374 z"
       id="path36"
       inkscape:connector-curvature="0"
       style="display:inline" /><path
       display="inline"
       d="m 378.854,315.854 0,0 c 0.419,0.956 0.3,1.912 1.436,0.717 l -64.129,26.477 c -2.092,1.613 -2.81,1.016 -3.229,0.06 l 0,0 c -0.418,-0.956 -0.299,-1.913 0.181,-2.092 l 64.128,-26.476 c 0.478,-0.24 1.195,0.358 1.613,1.314 z"
       id="path38"
       inkscape:connector-curvature="0"
       style="display:inline" /><path
       display="inline"
       d="m 312.813,462.34 0,0 c -0.18,1.017 -0.955,1.793 1.314,1.436 l -99.271,-17.751 c -3.765,0.061 -4.243,-0.896 -4.064,-1.973 l 0,0 c 0.179,-1.017 0.956,-1.793 1.733,-1.674 l 99.271,17.751 c 0.719,0.179 1.196,1.135 1.017,2.211 z"
       id="path40"
       inkscape:connector-curvature="0"
       style="display:inline" /><path
       display="inline"
       d="m 254.602,425.046 0,0 c 0.418,0.956 0.478,1.854 1.076,0.837 l -40.521,16.734 c -1.195,1.255 -1.793,0.598 -2.211,-0.358 l 0,0 c -0.418,-0.956 -0.478,-1.853 -0.179,-1.973 l 40.521,-16.734 c 0.297,-0.119 0.895,0.538 1.314,1.494 z"
       id="path42"
       inkscape:connector-curvature="0"
       style="display:inline" /><path
       display="inline"
       d="m 311.618,462.459 -0.599,-1.374 c -0.238,-0.598 0,-1.255 0.599,-1.494 l 67.235,-29.704 c 0.599,-0.237 1.256,0 1.494,0.599 l 0.599,1.375 c 0.238,0.598 0,1.255 -0.599,1.494 l -67.235,29.702 c -0.538,0.298 -1.255,0 -1.494,-0.598 z"
       id="path44"
       inkscape:connector-curvature="0"
       style="display:inline" /><path
       display="inline"
       d="m 378.974,432.457 0,0 c -0.179,0.896 -1.016,1.494 -1.911,1.313 l -37.176,-6.991 c -0.896,-0.181 -1.494,-1.017 -1.313,-1.912 l 0,0 c 0.18,-0.896 1.016,-1.494 1.912,-1.315 l 37.175,6.993 c 0.895,0.119 1.433,1.016 1.313,1.912 z"
       id="path46"
       inkscape:connector-curvature="0"
       style="display:inline" /></g><g
     id="图层_4"
     display="none"
     style="display:none"
     transform="translate(0,-536)"><path
       display="inline"
       d="m 340.545,407.895 c 0,7.59 -20.261,13.687 -45.243,13.687 -24.982,0 -45.242,-6.156 -45.242,-13.687 l 3.646,0 c 0,6.035 18.647,10.937 41.597,10.937 22.95,0 41.598,-4.899 41.598,-10.937 l 3.644,0 0,0 z"
       id="path49"
       inkscape:connector-curvature="0"
       style="display:inline;fill:#7c7c7c" /><path
       display="inline"
       d="m 340.545,439.629 c 0,7.59 -20.142,13.688 -44.944,13.688 -24.802,0 -44.943,-6.156 -44.943,-13.688 l 3.586,0 c 0,6.036 18.527,10.938 41.357,10.938 22.831,0 41.358,-4.901 41.358,-10.938 l 3.586,0 0,0 z"
       id="path51"
       inkscape:connector-curvature="0"
       style="display:inline;fill:#7c7c7c" /><path
       display="inline"
       d="m 295.601,305.993 c -24.803,0 -44.943,6.156 -44.943,13.686 0,7.531 20.141,13.687 44.943,13.687 24.802,0 44.944,-6.156 44.944,-13.687 0,-7.53 -20.142,-13.686 -44.944,-13.686 l 0,0 z m 0,24.623 c -22.83,0 -41.357,-4.9 -41.357,-10.937 0,-6.036 18.527,-10.937 41.357,-10.937 22.831,0 41.358,4.901 41.358,10.937 0,6.037 -18.527,10.937 -41.358,10.937 l 0,0 z"
       id="path53"
       inkscape:connector-curvature="0"
       style="display:inline;fill:#7c7c7c" /><path
       display="inline"
       d="m 250.657,319.679 3.586,0 0,121.325 -3.586,0 0,-121.325 0,0 z m 86.241,0 3.586,0 0,121.325 -3.586,0 0,-121.325 0,0 z"
       id="path55"
       inkscape:connector-curvature="0"
       style="display:inline;fill:#7c7c7c" /><path
       display="inline"
       d="m 327.934,438.254 3.586,-1.374 0,4.124 -3.586,1.374 0,-4.124 0,0 z"
       id="path57"
       inkscape:connector-curvature="0"
       style="display:inline;fill:#7c7c7c" /><path
       display="inline"
       d="m 340.425,376.218 c 0,7.59 -20.141,13.686 -44.943,13.686 -24.802,0 -44.944,-6.156 -44.944,-13.686 l 3.586,0 c 0,6.036 18.527,10.937 41.358,10.937 22.83,0 41.357,-4.901 41.357,-10.937 l 3.586,0 0,0 z"
       id="path59"
       inkscape:connector-curvature="0"
       style="display:inline;fill:#7c7c7c" /><path
       display="inline"
       d="m 340.545,344.542 c 0,7.59 -20.142,13.686 -44.944,13.686 -24.802,0 -44.943,-6.156 -44.943,-13.686 l 3.586,0 c 0,6.036 18.527,10.937 41.357,10.937 22.831,0 41.358,-4.901 41.358,-10.937 l 3.586,0 0,0 z"
       id="path61"
       inkscape:connector-curvature="0"
       style="display:inline;fill:#7c7c7c" /><path
       display="inline"
       d="m 276.536,308.145 0,0 c -1.016,0 -1.793,-0.837 -1.793,-1.793 l 0,-7.71 c 0,-1.016 0.836,-1.793 1.793,-1.793 l 0,0 c 1.016,0 1.793,0.837 1.793,1.793 l 0,7.71 c 0,0.956 -0.777,1.793 -1.793,1.793 z"
       id="path63"
       inkscape:connector-curvature="0"
       style="display:inline;fill:#7c7c7c" /></g><g
     id="g3672"
     transform="matrix(0.85430411,0,0,0.85430411,17.736677,45.354276)"
     style=""><path
       inkscape:connector-curvature="0"
       id="path65"
       d="m 128.021,237.88181 0,0 c -1.136,0 -2.092,-0.956 -2.092,-2.092 l 0,-136.265 c 0,-1.136 0.956,-2.092 2.092,-2.092 l 0,0 c 1.136,0 2.09201,0.956 2.09201,2.092 l 0,136.266 c 0,1.135 -0.956,2.091 -2.09201,2.091 z"
       style="" /><path
       inkscape:connector-curvature="0"
       id="path67"
       d="m 252.035,25.29581 0,0 c -0.598,1.016 -1.853,1.315 -2.869,0.777 l -118.037,-68.133 c -1.016,-0.598 -1.313,-1.853 -0.775,-2.869 l 0,0 c 0.598,-1.016 1.853,-1.315 2.868,-0.777 l 118.036,68.133 c 1.016,0.538 1.315,1.853 0.777,2.869 z"
       style="" /><path
       inkscape:connector-curvature="0"
       id="path69"
       d="m 125.631,96.11781 0,0 c -0.598,1.016 -1.853,1.315 -2.869,0.777 L 4.784,28.70281 c -1.016,-0.598 -1.315,-1.853 -0.777,-2.869 l 0,0 c 0.598,-1.016 1.853,-1.315 2.869,-0.777 l 118.037,68.133 c 0.957,0.597 1.315,1.912 0.718,2.928 z"
       style="" /><path
       inkscape:connector-curvature="0"
       id="path71"
       d="m 125.631,239.31681 0,0 c -0.598,1.017 -1.853,1.314 -2.869,0.776 L 4.725,171.95981 c -1.016,-0.599 -1.315,-1.854 -0.777,-2.868 l 0,0 c 0.598,-1.017 1.853,-1.315 2.869,-0.777 l 118.037,68.133 c 1.016,0.597 1.374,1.913 0.777,2.869 z"
       style="" /><path
       inkscape:connector-curvature="0"
       id="path73"
       d="m 254.426,167.65681 0,0 c -1.136,0 -2.092,-0.956 -2.092,-2.093 l 0,-136.264 c 0,-1.136 0.956,-2.092 2.092,-2.092 l 0,0 c 1.137,0 2.093,0.956 2.093,2.092 l 0,136.266 c -0.002,1.135 -0.958,2.091 -2.093,2.091 z"
       style="" /><path
       inkscape:connector-curvature="0"
       id="path75"
       d="m 3.709,167.35881 0,0 c -1.136,0 -2.092,-0.956 -2.092,-2.092 l 0,-136.266 c 0,-1.136 0.956,-2.092 2.092,-2.092 l 0,0 c 1.136,0 2.092,0.956 2.092,2.092 l 0,136.266 c 0,1.136 -0.956,2.092 -2.092,2.092 z"
       style="" /><path
       inkscape:connector-curvature="0"
       id="path77"
       d="m 130.412,239.31681 0,0 c -0.598,-1.017 -0.239,-2.271 0.777,-2.869 l 118.037,-68.133 c 1.016,-0.598 2.271,-0.238 2.867,0.777 l 0,0 c 0.599,1.016 0.239,2.271 -0.77499,2.868 l -118.037,68.133 c -1.017,0.598 -2.331,0.239 -2.869,-0.776 z"
       style="" /><path
       inkscape:connector-curvature="0"
       id="path79"
       d="m 5.502,25.17581 0,0 c -0.598,-1.016 -0.239,-2.271 0.777,-2.869 l 118.037,-68.133 c 1.016,-0.598 2.271,-0.239 2.869,0.777 l 0,0 c 0.598,1.016 0.238,2.271 -0.777,2.869 L 8.37,25.95281 c -1.016,0.538 -2.33,0.18 -2.868,-0.777 z"
       style="" /><path
       inkscape:connector-curvature="0"
       id="path81"
       d="m 130.412,96.11781 0,0 c -0.598,-1.016 -0.239,-2.271 0.777,-2.869 l 118.037,-68.133 c 1.016,-0.598 2.271,-0.239 2.867,0.777 l 0,0 c 0.599,1.016 0.239,2.271 -0.77499,2.869 l -118.098,68.073 c -0.956,0.598 -2.27001,0.239 -2.808,-0.717 z"
       style="" /><path
       inkscape:connector-curvature="0"
       id="path83"
       d="m 129.097,-12.95219 0,0 c -1.137,0 -2.092,-0.231 -2.092,-0.506 l 0,-32.938 c 0,-0.275 0.957,-0.506 2.092,-0.506 l 0,0 c 1.135,0 2.092,0.231 2.092,0.506 l 0,32.938 c 0,0.275 -0.95699,0.506 -2.092,0.506 z"
       style="" /><path
       inkscape:connector-curvature="0"
       id="path85"
       d="m 191.254,73.46081 c 0,22.834 -28.00399,41.7 -62.864,41.7 -34.862,0 -62.865,-18.866 -62.865,-41.7 l 5.144,0 c 0,17.871 25.71701,32.764 57.722,32.764 32.003,0 57.72,-14.894 57.72,-32.764 l 5.143,0 0,0 z"
       style="" /><path
       inkscape:connector-curvature="0"
       id="path87"
       d="m 191.254,119.16281 c 0,22.836 -28.00399,41.701 -62.864,41.701 -34.862,0 -62.865,-18.865 -62.865,-41.701 l 5.144,0 c 0,17.871 25.71701,32.766 57.722,32.766 32.003,0 57.72,-14.895 57.72,-32.766 l 5.143,0 0,0 z"
       style="" /><path
       inkscape:connector-curvature="0"
       id="path89"
       d="m 191.254,164.86681 c 0,22.835 -28.00399,41.699 -62.864,41.699 -34.862,0 -62.865,-18.864 -62.865,-41.699 l 5.144,0 c 0,17.87 25.71701,32.763 57.722,32.763 32.003,0 57.72,-14.893 57.72,-32.763 l 5.143,0 0,0 z"
       style="" /><path
       inkscape:connector-curvature="0"
       id="path91"
       d="m 128.389,-12.95219 c -34.862,0 -62.865,18.864 -62.865,41.701 0,22.837 28.00301,40.709 62.865,40.709 34.86,0 62.864,-18.865 62.864,-41.702 0,-22.837 -28.003,-40.708 -62.864,-40.708 l 0,0 z m 0,74.466 c -32.004,0 -57.722,-14.893 -57.722,-32.766 0,-17.872 25.71701,-32.765 57.722,-32.765 32.003,0 57.72,14.893 57.72,32.765 0,17.874 -25.717,32.766 -57.72,32.766 l 0,0 z"
       style="" /><path
       inkscape:connector-curvature="0"
       id="path93"
       d="m 65.524,27.75681 5.144,0 0,141.431 -5.144,0 0,-141.431 0,0 z m 120.585,0 5.145,0 0,141.431 -5.145,0 0,-141.431 0,0 z"
       style="" /><path
       inkscape:connector-curvature="0"
       id="path95"
       d="m 252.675,168.21981 0,0 c -0.57,0.982 -1.457,1.572 -1.94099,1.291 l -58.03301,-33.729 c -0.484,-0.281 -0.41,-1.345 0.16,-2.326 l 0,0 c 0.571,-0.983 1.458,-1.573 1.94201,-1.292 l 58.03299,33.729 c 0.483,0.282 0.411,1.346 -0.161,2.327 z"
       style="" /><path
       inkscape:connector-curvature="0"
       id="path97"
       d="m 5.699,165.89281 58.033,-33.729 c 0.484,-0.281 1.371,0.309 1.942,1.292 l 0,0 c 0.57,0.981 0.645,2.045 0.16,2.326 l -58.033,33.729 c -0.484,0.281 -1.371,-0.309 -1.941,-1.291 l 0,0 c -0.572,-0.981 -0.644,-2.045 -0.161,-2.327 z"
       style="" /></g><g
     transform="translate(-39.254883,-80.670634)"
     style="font-style:normal;font-variant:normal;font-weight:normal;font-stretch:normal;font-size:80px;line-height:125%;font-family:FZZY-dospy;-inkscape-font-specification:FZZY-dospy;text-align:center;letter-spacing:0px;word-spacing:0px;writing-mode:lr-tb;text-anchor:middle;fill:#000000;fill-opacity:1;stroke:none;stroke-width:1px;stroke-linecap:butt;stroke-linejoin:miter;stroke-opacity:1"
     id="flowRoot3754"><path
       d="m 383.96777,144.49299 q 23.25,0 33,10.3125 l -3.75,4.125 q -9,-8.8125 -28.5,-8.8125 -29.25,0 -29.25,23.25 0,9 7.125,14.4375 7.125,5.25 17.25,8.0625 10.3125,2.8125 20.4375,6 10.3125,3 17.4375,9.9375 7.125,6.75 7.125,17.8125 0,12.9375 -10.6875,20.625 -10.6875,7.6875 -30.9375,7.6875 -9.9375,0 -19.6875,-2.625 -9.5625,-2.625 -14.25,-7.6875 l 3.75,-4.125 q 9.5625,8.8125 29.4375,8.8125 18.1875,0 27.375,-6.75 9.375,-6.75 9.375,-15.75 0,-9.375 -7.125,-15.1875 -7.125,-5.8125 -17.4375,-8.625 -10.125,-3 -20.4375,-6 -10.125,-3.1875 -17.25,-9.75 -7.125,-6.5625 -7.125,-17.25 0,-14.4375 9.5625,-21.375 9.75,-7.125 24.5625,-7.125 z"
       style="font-style:normal;font-variant:normal;font-weight:500;font-stretch:normal;font-size:187.5px;line-height:125%;font-family:Megrim;-inkscape-font-specification:'Megrim Medium';text-align:center;writing-mode:lr-tb;text-anchor:middle"
       id="path8038" /><path
       d="m 514.95117,249.86799 0,5.625 -62.625,0 0,-108.75 5.625,0 0,103.125 57,0 z"
       style="font-style:normal;font-variant:normal;font-weight:500;font-stretch:normal;font-size:187.5px;line-height:125%;font-family:Megrim;-inkscape-font-specification:'Megrim Medium';text-align:center;writing-mode:lr-tb;text-anchor:middle"
       id="path8040" /><path
       d="m 536.55469,146.74299 5.625,0 0,108.75 -5.625,0 0,-108.75 z"
       style="font-style:normal;font-variant:normal;font-weight:500;font-stretch:normal;font-size:187.5px;line-height:125%;font-family:Megrim;-inkscape-font-specification:'Megrim Medium';text-align:center;writing-mode:lr-tb;text-anchor:middle"
       id="path8042" /><path
       d="m 595.56152,249.86799 72.375,0 0,-95.25 -42.1875,42.1875 -42.1875,-42.1875 0,100.875 -5.625,-0.1875 0,-108.5625 5.625,0 42.1875,42.1875 42.1875,-42.1875 5.625,0 0,108.75 -78,-0.1875 0,-5.4375 z"
       style="font-style:normal;font-variant:normal;font-weight:500;font-stretch:normal;font-size:187.5px;line-height:125%;font-family:Megrim;-inkscape-font-specification:'Megrim Medium';text-align:center;writing-mode:lr-tb;text-anchor:middle"
       id="path8044" /></g><flowRoot
     xml:space="preserve"
     id="flowRoot3762"
     style="fill:black;stroke:none;stroke-opacity:1;stroke-width:1px;stroke-linejoin:miter;stroke-linecap:butt;fill-opacity:1;font-family:Wingdings;font-style:normal;font-weight:normal;font-size:40px;line-height:125%;letter-spacing:0px;word-spacing:0px;-inkscape-font-specification:Wingdings;font-stretch:normal;font-variant:normal;"><flowRegion
       id="flowRegion3764"><rect
         id="rect3766"
         width="61.698063"
         height="138.82063"
         x="574.2666"
         y="66.159805"
         style="-inkscape-font-specification:Wingdings;font-family:Wingdings;font-weight:normal;font-style:normal;font-stretch:normal;font-variant:normal" /></flowRegion><flowPara
       id="flowPara3768" /></flowRoot></svg>